<svg xmlns="http://www.w3.org/2000/svg" width="32" height="32" viewBox="0 0 32 32" fill="none">
  <defs>
    <linearGradient id="leftFav" x1="0%" y1="0%" x2="100%" y2="0%">
      <stop offset="0%" style="stop-color:#2563eb;stop-opacity:1" />
      <stop offset="100%" style="stop-color:#3b82f6;stop-opacity:1" />
    </linearGradient>
    <linearGradient id="rightFav" x1="0%" y1="0%" x2="100%" y2="0%">
      <stop offset="0%" style="stop-color:#60a5fa;stop-opacity:1" />
      <stop offset="100%" style="stop-color:#93c5fd;stop-opacity:1" />
    </linearGradient>
  </defs>

  <!-- Left page -->
  <path d="M 4 8 C 4 8 7 6 11 6 C 14 6 15.5 7 16 8 L 16 24 C 15.5 23 14 22 11 22 C 7 22 4 24 4 24 L 4 8 Z"
        fill="url(#leftFav)"
        stroke="#2563eb"
        stroke-width="1.2"/>

  <!-- Right page -->
  <path d="M 16 8 C 16.5 7 18 6 21 6 C 25 6 28 8 28 8 L 28 24 C 28 24 25 22 21 22 C 18 22 16.5 23 16 24 L 16 8 Z"
        fill="url(#rightFav)"
        stroke="#3b82f6"
        stroke-width="1.2"/>

  <!-- Plus badge -->
  <circle cx="25" cy="7" r="5.5" fill="#22c55e" stroke="#16a34a" stroke-width="1.5"/>
  <line x1="25" y1="4" x2="25" y2="10" stroke="white" stroke-width="2.5" stroke-linecap="round"/>
  <line x1="22" y1="7" x2="28" y2="7" stroke="white" stroke-width="2.5" stroke-linecap="round"/>
</svg>
