<svg xmlns="http://www.w3.org/2000/svg" width="48" height="48" viewBox="0 0 48 48" fill="none">
  <defs>
    <linearGradient id="leftPage" x1="0%" y1="0%" x2="100%" y2="0%">
      <stop offset="0%" style="stop-color:#2563eb;stop-opacity:1" />
      <stop offset="100%" style="stop-color:#3b82f6;stop-opacity:1" />
    </linearGradient>
    <linearGradient id="rightPage" x1="0%" y1="0%" x2="100%" y2="0%">
      <stop offset="0%" style="stop-color:#60a5fa;stop-opacity:1" />
      <stop offset="100%" style="stop-color:#93c5fd;stop-opacity:1" />
    </linearGradient>
  </defs>

  <!-- Book base shadow -->
  <ellipse cx="24" cy="38" rx="18" ry="2" fill="#000" opacity="0.1"/>

  <!-- Left page with curve -->
  <path d="M 6 12 C 6 12 10 10 16 10 C 20 10 23 11 24 12 L 24 36 C 23 35 20 34 16 34 C 10 34 6 36 6 36 L 6 12 Z"
        fill="url(#leftPage)"
        stroke="#2563eb"
        stroke-width="1.5"/>

  <!-- Right page with curve -->
  <path d="M 24 12 C 25 11 28 10 32 10 C 38 10 42 12 42 12 L 42 36 C 42 36 38 34 32 34 C 28 34 25 35 24 36 L 24 12 Z"
        fill="url(#rightPage)"
        stroke="#3b82f6"
        stroke-width="1.5"/>

  <!-- Spine highlight -->
  <path d="M 24 12 L 24 36" stroke="#1e40af" stroke-width="1" opacity="0.3"/>

  <!-- Left page text lines -->
  <line x1="10" y1="17" x2="19" y2="17" stroke="#1e3a8a" stroke-width="1" opacity="0.3" stroke-linecap="round"/>
  <line x1="10" y1="21" x2="20" y2="21" stroke="#1e3a8a" stroke-width="1" opacity="0.3" stroke-linecap="round"/>
  <line x1="10" y1="25" x2="18" y2="25" stroke="#1e3a8a" stroke-width="1" opacity="0.3" stroke-linecap="round"/>
  <line x1="10" y1="29" x2="19" y2="29" stroke="#1e3a8a" stroke-width="1" opacity="0.3" stroke-linecap="round"/>

  <!-- Right page text lines -->
  <line x1="28" y1="17" x2="38" y2="17" stroke="#1e40af" stroke-width="1" opacity="0.3" stroke-linecap="round"/>
  <line x1="28" y1="21" x2="38" y2="21" stroke="#1e40af" stroke-width="1" opacity="0.3" stroke-linecap="round"/>
  <line x1="30" y1="25" x2="38" y2="25" stroke="#1e40af" stroke-width="1" opacity="0.3" stroke-linecap="round"/>
  <line x1="28" y1="29" x2="38" y2="29" stroke="#1e40af" stroke-width="1" opacity="0.3" stroke-linecap="round"/>

  <!-- Plus badge with shadow -->
  <circle cx="38" cy="10" r="8" fill="#000" opacity="0.15"/>
  <circle cx="38" cy="9" r="8" fill="#22c55e" stroke="#16a34a" stroke-width="2"/>
  <line x1="38" y1="5" x2="38" y2="13" stroke="white" stroke-width="3" stroke-linecap="round"/>
  <line x1="34" y1="9" x2="42" y2="9" stroke="white" stroke-width="3" stroke-linecap="round"/>
</svg>
